<svg width="16" height="16" viewBox="0 0 16 16" fill="none" xmlns="http://www.w3.org/2000/svg">
<path d="M9.33317 1.33325V3.99992C9.33317 4.35354 9.47365 4.69268 9.72369 4.94273C9.97374 5.19278 10.3129 5.33325 10.6665 5.33325H13.3332M9.99984 1.33325H3.99984C3.64622 1.33325 3.30708 1.47373 3.05703 1.72378C2.80698 1.97383 2.6665 2.31296 2.6665 2.66659V13.3333C2.6665 13.6869 2.80698 14.026 3.05703 14.2761C3.30708 14.5261 3.64622 14.6666 3.99984 14.6666H11.9998C12.3535 14.6666 12.6926 14.5261 12.9426 14.2761C13.1927 14.026 13.3332 13.6869 13.3332 13.3333V4.66659L9.99984 1.33325Z" stroke="#1C2834" stroke-width="1.4" stroke-linecap="round" stroke-linejoin="round"/>
</svg>
