<svg width="24" height="25" viewBox="0 0 24 25" fill="none" xmlns="http://www.w3.org/2000/svg">
<path d="M10.3908 13.5437C10.7363 14.006 11.1772 14.3886 11.6834 14.6655C12.1896 14.9423 12.7494 15.1069 13.3247 15.1482C13.9001 15.1894 14.4776 15.1063 15.0181 14.9045C15.5585 14.7027 16.0493 14.3869 16.4571 13.9785L18.8708 11.5625C19.6035 10.803 20.009 9.78586 19.9998 8.73005C19.9907 7.67425 19.5676 6.66429 18.8218 5.91769C18.0759 5.1711 17.067 4.74761 16.0122 4.73843C14.9575 4.72926 13.9413 5.13513 13.1826 5.86864L11.7988 7.2458M13.6092 11.9329C13.2637 11.4705 12.8228 11.0879 12.3166 10.8111C11.8104 10.5343 11.2506 10.3696 10.6753 10.3284C10.0999 10.2871 9.5224 10.3702 8.98194 10.572C8.44148 10.7739 7.95069 11.0896 7.54288 11.498L5.12923 13.9141C4.39646 14.6735 3.99099 15.6907 4.00015 16.7465C4.00932 17.8023 4.43239 18.8123 5.17823 19.5589C5.92408 20.3055 6.93304 20.729 7.98779 20.7381C9.04254 20.7473 10.0587 20.3414 10.8174 19.6079L12.1932 18.2308" stroke="currentColor" stroke-width="1.7" stroke-linecap="round" stroke-linejoin="round"/>
</svg>
